# xmcd CD database file
#
# Track frame offsets:
#	150
#	16411
#	37335
#
# Disc length: 708 seconds
#
# Revision: 0
# Processed by: cddbd v1.5.2PL0 Copyright (c) Steve Scherf et al.
# Submitted via: CDex 1.70beta2
#
DISCID=2102c203
DTITLE=Bublé, Michael - Everything
DYEAR=2007
DGENRE=Jazz
TTITLE0=Everything
TTITLE1=These Foolish Things
TTITLE2=Everything (Alternate Mix)
EXTD=YEAR: 2007
EXTT0=
EXTT1=
EXTT2=
PLAYORDER=
